<?xml version="1.0" standalone="no"?>
<!DOCTYPE svg PUBLIC "-//W3C//DTD SVG 20010904//EN"
 "http://www.w3.org/TR/2001/REC-SVG-20010904/DTD/svg10.dtd">
<svg version="1.0" xmlns="http://www.w3.org/2000/svg"
 width="920.000000pt" height="508.000000pt" viewBox="0 0 920.000000 508.000000"
 preserveAspectRatio="xMidYMid meet">

<g transform="translate(0.000000,508.000000) scale(0.100000,-0.100000)"
fill="#000000" stroke="none">
<path d="M1370 5010 c-97 -35 -173 -114 -203 -211 -16 -50 -17 -213 -14 -2209
1 -1185 6 -2162 10 -2171 5 -10 20 -19 35 -23 15 -3 1547 -5 3404 -5 2651 -1
3379 2 3385 11 4 7 16 33 25 58 l16 45 2 -45 c2 -39 3 -41 9 -15 3 16 5 58 5
95 -1 36 -1 121 0 190 0 69 1 1007 1 2085 l0 1960 -26 55 c-31 66 -74 118
-121 144 -27 16 -24 11 17 -26 51 -46 110 -138 103 -160 -2 -6 -16 9 -30 33
-64 106 -124 147 -273 185 -29 8 -29 8 15 14 25 4 -1384 7 -3130 8 -3141 2
-3176 1 -3230 -18z m10 -31 c-114 -62 -184 -158 -197 -272 -7 -50 -7 -51 -14
-18 -23 107 58 237 186 297 72 34 90 29 25 -7z m6271 -263 c2 -2 3 -911 1
-2020 l-2 -2016 -3085 0 -3085 0 0 2020 0 2020 3083 0 c1696 0 3086 -2 3088
-4z"/>
<path d="M7830 5000 c8 -5 20 -10 25 -10 6 0 3 5 -5 10 -8 5 -19 10 -25 10 -5
0 -3 -5 5 -10z"/>
<path d="M80 324 c0 -41 4 -63 10 -59 6 3 10 33 10 66 0 33 -4 59 -10 59 -6 0
-10 -29 -10 -66z"/>
<path d="M9108 325 c5 -84 22 -84 22 0 0 45 -4 65 -12 65 -10 0 -12 -18 -10
-65z"/>
<path d="M3990 361 c0 -11 4 -22 9 -25 4 -3 6 6 3 19 -5 30 -12 33 -12 6z"/>
<path d="M5247 361 c-4 -17 -3 -21 5 -13 5 5 8 16 6 23 -3 8 -7 3 -11 -10z"/>
<path d="M4033 318 c16 -10 1177 -10 1177 0 0 4 -267 7 -594 7 -327 0 -589 -3
-583 -7z"/>
<path d="M141 231 c9 -6 56 -23 105 -38 l89 -28 4260 0 4260 0 80 24 c102 30
117 38 66 37 -22 0 -41 -5 -41 -11 0 -5 -4 -4 -9 4 -6 9 -10 10 -16 2 -5 -9
-10 -9 -20 -1 -10 8 -15 8 -20 0 -5 -8 -11 -8 -21 1 -11 9 -14 8 -14 -2 0 -12
-2 -12 -9 0 -6 9 -10 10 -16 2 -5 -9 -10 -9 -20 -1 -10 8 -15 8 -20 0 -5 -8
-10 -8 -20 0 -10 8 -15 8 -20 0 -5 -8 -10 -8 -20 0 -10 8 -15 8 -20 0 -5 -8
-11 -8 -21 1 -11 9 -14 8 -14 -2 0 -12 -2 -12 -9 0 -6 9 -11 10 -15 2 -5 -8
-13 -8 -26 -1 -13 7 -21 7 -25 0 -4 -6 -11 -8 -17 -4 -12 8 -567 8 -575 0 -3
-3 -14 -1 -24 4 -12 7 -20 7 -24 0 -4 -6 -13 -7 -24 -1 -10 6 -23 6 -31 1 -8
-5 -21 -5 -30 0 -9 5 -22 5 -30 0 -8 -5 -21 -5 -30 0 -9 5 -22 5 -30 0 -8 -5
-21 -5 -31 1 -12 6 -20 5 -24 -1 -5 -8 -11 -7 -21 1 -11 9 -14 8 -14 -2 0 -12
-2 -12 -9 0 -6 9 -10 10 -16 2 -5 -9 -10 -9 -21 0 -11 9 -14 8 -14 -2 0 -12
-2 -12 -9 0 -6 9 -10 10 -16 2 -5 -9 -10 -9 -21 0 -11 9 -14 8 -14 -2 0 -12
-2 -12 -9 0 -6 9 -10 10 -16 2 -5 -9 -10 -9 -21 0 -11 9 -14 8 -14 -2 0 -12
-2 -12 -9 0 -6 9 -10 10 -16 2 -5 -9 -10 -9 -20 -1 -10 8 -14 7 -18 -2 -4 -11
-6 -11 -6 0 -1 9 -6 10 -19 3 -11 -6 -24 -6 -32 -1 -9 5 -19 5 -26 -1 -8 -7
-15 -6 -19 2 -6 8 -10 7 -16 -2 -7 -11 -9 -11 -9 -1 0 9 -5 10 -18 3 -10 -5
-24 -6 -32 -1 -8 5 -21 5 -31 0 -9 -5 -19 -7 -22 -4 -11 11 -57 11 -57 0 0 -6
-4 -5 -9 3 -6 9 -11 10 -15 2 -5 -7 -13 -8 -25 -2 -10 6 -23 6 -31 1 -8 -5
-21 -5 -31 1 -12 6 -20 5 -24 -1 -5 -8 -11 -7 -21 1 -11 9 -14 8 -14 -2 0 -12
-2 -12 -9 0 -6 9 -11 10 -15 2 -5 -7 -13 -8 -25 -2 -10 6 -23 6 -31 1 -8 -5
-21 -5 -30 0 -9 5 -22 5 -30 0 -8 -5 -18 -6 -23 -3 -5 3 -255 5 -555 4 -301
-1 -555 -1 -564 -1 -25 0 -46 0 -60 0 -7 0 -24 1 -38 3 -14 1 -28 -2 -32 -8
-5 -6 -8 -5 -8 4 0 10 -3 11 -14 2 -11 -9 -16 -9 -21 0 -6 8 -10 7 -16 -2 -7
-12 -9 -12 -9 0 0 10 -3 11 -14 2 -11 -9 -16 -9 -21 0 -6 8 -10 7 -16 -2 -7
-11 -9 -11 -9 -1 0 9 -5 10 -18 3 -10 -5 -24 -6 -32 -1 -8 5 -21 5 -31 -1 -12
-6 -20 -5 -25 2 -4 8 -9 7 -15 -2 -7 -12 -9 -12 -9 0 0 10 -3 11 -14 2 -10 -9
-16 -9 -21 -1 -5 8 -10 8 -20 0 -10 -8 -15 -8 -20 0 -5 8 -10 8 -20 0 -10 -8
-15 -8 -20 1 -6 8 -10 7 -16 -2 -7 -12 -9 -12 -9 0 0 10 -3 11 -14 2 -10 -9
-16 -9 -21 -1 -5 8 -10 8 -20 0 -10 -8 -15 -8 -20 1 -6 8 -10 7 -16 -2 -7 -12
-9 -12 -9 0 0 10 -3 11 -14 2 -11 -9 -16 -9 -21 0 -6 8 -10 7 -16 -2 -7 -12
-9 -12 -9 0 0 10 -3 11 -14 2 -11 -9 -16 -9 -21 0 -6 8 -10 7 -16 -2 -7 -12
-9 -12 -9 0 0 10 -3 11 -14 2 -11 -9 -16 -9 -21 0 -6 8 -10 7 -16 -2 -7 -12
-9 -12 -9 0 0 10 -3 11 -14 2 -11 -9 -16 -9 -21 0 -6 8 -10 7 -16 -2 -7 -12
-9 -12 -9 0 0 10 -3 11 -14 2 -11 -9 -16 -9 -21 0 -6 8 -10 7 -16 -2 -7 -12
-9 -12 -9 0 0 10 -3 11 -14 2 -11 -9 -16 -9 -21 0 -6 8 -10 7 -16 -2 -7 -12
-9 -12 -9 0 0 10 -3 11 -14 2 -11 -9 -16 -9 -21 0 -6 8 -10 7 -16 -2 -7 -12
-9 -12 -9 0 0 10 -3 11 -14 2 -11 -9 -16 -9 -21 0 -6 8 -10 7 -16 -2 -7 -12
-9 -12 -9 0 0 10 -3 11 -14 2 -11 -9 -16 -9 -21 0 -6 8 -10 7 -16 -2 -7 -12
-9 -12 -9 0 0 10 -3 11 -14 2 -11 -9 -16 -9 -21 0 -6 8 -10 7 -16 -2 -7 -12
-9 -12 -9 0 0 10 -3 11 -14 2 -11 -9 -16 -9 -21 0 -6 8 -10 7 -16 -2 -7 -12
-9 -12 -9 0 0 10 -3 11 -14 2 -11 -9 -16 -9 -21 0 -6 8 -10 7 -16 -2 -7 -12
-9 -12 -9 0 0 10 -3 11 -14 2 -11 -9 -16 -9 -21 0 -6 8 -10 7 -16 -2 -7 -12
-9 -12 -9 0 0 10 -3 11 -14 2 -11 -9 -16 -9 -21 0 -6 8 -10 7 -16 -2 -7 -12
-9 -12 -9 0 0 10 -3 11 -14 2 -11 -9 -16 -9 -21 0 -6 8 -10 7 -16 -2 -7 -12
-9 -12 -9 0 0 10 -3 11 -14 2 -11 -9 -16 -9 -21 0 -6 8 -10 7 -16 -2 -7 -12
-9 -12 -9 0 0 10 -3 11 -14 2 -11 -9 -16 -9 -21 0 -6 8 -10 7 -16 -2 -7 -12
-9 -12 -9 0 0 10 -3 11 -14 2 -11 -9 -16 -9 -21 0 -6 8 -10 7 -16 -2 -7 -12
-9 -12 -9 0 0 10 -3 11 -14 2 -10 -9 -16 -9 -21 -1 -5 8 -10 8 -20 0 -10 -8
-15 -8 -20 1 -6 8 -10 7 -16 -2 -7 -12 -9 -12 -9 0 0 10 -3 11 -14 2 -11 -9
-16 -9 -21 0 -6 8 -10 7 -16 -2 -7 -12 -9 -12 -9 0 0 10 -3 11 -14 2 -11 -9
-16 -9 -21 0 -6 8 -10 7 -16 -2 -7 -12 -9 -12 -9 0 0 10 -3 11 -14 2 -11 -9
-16 -9 -21 0 -6 8 -10 7 -16 -2 -7 -12 -9 -12 -9 0 0 10 -3 11 -14 2 -10 -9
-16 -9 -21 -1 -5 8 -10 8 -20 0 -10 -8 -15 -8 -20 0 -5 8 -10 8 -20 0 -10 -8
-15 -8 -20 0 -5 8 -10 8 -20 0 -10 -8 -15 -8 -20 0 -5 8 -10 8 -20 0 -10 -8
-15 -8 -20 0 -5 8 -10 8 -20 0 -10 -8 -15 -8 -20 0 -5 8 -10 8 -20 0 -10 -8
-15 -8 -20 1 -6 8 -10 7 -16 -2 -7 -12 -9 -12 -9 0 0 10 -3 11 -14 2 -11 -9
-16 -9 -21 0 -6 8 -10 7 -16 -2 -7 -12 -9 -12 -9 0 0 10 -3 11 -14 2 -11 -9
-16 -9 -21 0 -6 8 -10 7 -16 -2 -7 -11 -9 -11 -9 -1 0 9 -5 10 -19 3 -10 -6
-21 -8 -24 -4 -8 7 -757 7 -764 -1 -3 -3 -14 -1 -24 4 -12 7 -20 7 -24 0 -4
-6 -13 -7 -24 -1 -10 6 -23 6 -31 1 -8 -5 -18 -6 -24 -3 -5 3 -325 5 -710 4
-386 -1 -707 -2 -713 -1 -14 0 -36 0 -55 0 -7 0 -32 1 -56 3 -23 2 -48 0 -54
-4 -7 -4 -20 -3 -30 2 -13 7 -18 6 -18 -3 0 -10 -2 -10 -9 1 -6 9 -10 10 -16
2 -5 -9 -10 -9 -21 0 -11 9 -14 8 -14 -2 0 -12 -2 -12 -9 0 -6 9 -10 10 -16 2
-5 -9 -10 -9 -21 0 -11 9 -14 8 -14 -2 0 -12 -2 -12 -9 0 -6 9 -10 10 -16 2
-5 -9 -10 -9 -21 0 -11 9 -14 8 -14 -2 0 -12 -2 -12 -9 0 -6 9 -10 10 -16 2
-5 -9 -10 -9 -21 0 -11 9 -14 8 -14 -2 0 -12 -2 -12 -9 0 -6 9 -10 10 -16 2
-5 -9 -10 -9 -21 0 -11 9 -14 8 -14 -2 0 -12 -2 -12 -9 0 -6 9 -10 10 -16 2
-5 -9 -10 -9 -21 0 -11 9 -14 8 -14 -2 0 -12 -2 -12 -9 0 -6 9 -10 10 -16 2
-5 -9 -10 -9 -21 0 -11 9 -14 8 -14 -2 0 -12 -2 -12 -9 0 -6 9 -11 10 -15 2
-5 -8 -13 -8 -26 -1 -13 7 -21 7 -25 0 -4 -6 -12 -7 -18 -3 -7 4 -21 8 -32 9
-11 0 -31 4 -45 8 -19 5 -21 4 -9 -3z"/>
</g>
</svg>
