<?xml version="1.0" standalone="no"?>
<!DOCTYPE svg PUBLIC "-//W3C//DTD SVG 20010904//EN"
 "http://www.w3.org/TR/2001/REC-SVG-20010904/DTD/svg10.dtd">
<svg version="1.0" xmlns="http://www.w3.org/2000/svg"
 width="225.000000pt" height="225.000000pt" viewBox="0 0 225.000000 225.000000"
 preserveAspectRatio="xMidYMid meet">

<g transform="translate(0.000000,225.000000) scale(0.100000,-0.100000)"
fill="#000000" stroke="none">
<path d="M617 2166 c-87 -32 -157 -102 -185 -185 -9 -25 -12 -255 -12 -841 0
-902 -3 -859 71 -944 22 -25 65 -57 97 -73 l57 -28 455 0 c411 0 459 2 499 18
70 28 126 80 161 150 l30 62 -2 825 -3 825 -23 42 c-28 54 -81 107 -135 135
-42 23 -46 23 -507 25 -374 2 -472 0 -503 -11z m532 -134 c49 -39 17 -122 -46
-122 -29 0 -73 42 -73 70 0 28 44 70 73 70 14 0 35 -8 46 -18z m451 -907 l0
-665 -495 0 -495 0 0 665 0 665 495 0 495 0 0 -665z m-269 -821 c9 -11 10 -20
2 -32 -9 -15 -36 -17 -228 -17 -192 0 -219 2 -228 17 -8 12 -7 21 2 32 20 24
432 24 452 0z"/>
</g>
</svg>
